<?xml version="1.0" encoding="UTF-8" standalone="no"?>
<svg
   version="1.0"
   width="500.000000pt"
   height="500.000000pt"
   viewBox="0 0 500.000000 500.000000"
   preserveAspectRatio="xMidYMid meet"
   id="svg2"
   sodipodi:docname="CP.svg"
   inkscape:version="1.4.2 (f4327f4, 2025-05-13)"
   xmlns:inkscape="http://www.inkscape.org/namespaces/inkscape"
   xmlns:sodipodi="http://sodipodi.sourceforge.net/DTD/sodipodi-0.dtd"
   xmlns="http://www.w3.org/2000/svg"
   xmlns:svg="http://www.w3.org/2000/svg">
  <defs
     id="defs2" />
  <sodipodi:namedview
     id="namedview2"
     pagecolor="#ffffff"
     bordercolor="#000000"
     borderopacity="0.25"
     inkscape:showpageshadow="2"
     inkscape:pageopacity="0.0"
     inkscape:pagecheckerboard="0"
     inkscape:deskcolor="#d1d1d1"
     inkscape:document-units="pt"
     inkscape:zoom="1.2825"
     inkscape:cx="332.94347"
     inkscape:cy="333.33333"
     inkscape:window-width="1920"
     inkscape:window-height="1057"
     inkscape:window-x="-8"
     inkscape:window-y="-8"
     inkscape:window-maximized="1"
     inkscape:current-layer="svg2" />
  <g
     transform="translate(0.000000,500.000000) scale(0.100000,-0.100000)"
     fill="#000000"
     stroke="none"
     id="g2"
     style="fill:#f80000;fill-opacity:1">
    <path
       d="M2076 3795 c-42 -100 -102 -141 -190 -130 -50 6 -71 10 -226 40 -190 36 -422 29 -610 -19 -171 -44 -298 -108 -445 -222 -242 -188 -391 -445 -456 -789 -20 -102 -17 -389 5 -490 89 -413 348 -722 741 -880 266 -107 592 -121 865 -36 85 27 248 110 319 163 80 60 228 212 281 288 110 158 237 390 225 410 -14 22 -27 4 -95 -127 -216 -422 -520 -633 -910 -633 -298 0 -556 105 -761 309 -224 223 -338 531 -339 911 0 546 250 946 675 1076 46 14 91 18 195 18 120 -1 144 -4 215 -28 278 -94 519 -319 678 -631 56 -111 97 -203 97 -220 0 -7 7 -18 15 -25 22 -18 20 7 -11 120 -14 52 -46 174 -70 270 -140 541 -165 633 -174 649 -6 12 -12 6 -24 -24z"
       id="path1"
       style="fill:#f80000;fill-opacity:1" />
    <path
       d="M2690 3690 c0 -4 38 -10 84 -12 148 -10 205 -54 243 -188 17 -61 18 -128 18 -1020 0 -781 -3 -965 -14 -1010 -37 -149 -105 -200 -263 -200 -38 0 -68 -4 -68 -9 0 -6 226 -10 586 -10 388 -1 583 2 579 9 -3 5 -45 10 -93 11 -214 1 -328 51 -372 164 -36 91 -41 142 -47 491 l-6 352 379 5 c290 4 399 9 464 21 396 76 635 253 704 522 23 89 21 232 -5 324 -81 294 -382 484 -847 534 -100 11 -298 16 -739 19 -332 2 -603 1 -603 -3z m1230 -49 c25 -6 70 -16 100 -23 130 -28 285 -114 371 -205 46 -48 101 -134 122 -193 123 -334 -15 -684 -323 -823 -162 -72 -252 -87 -572 -94 l-278 -6 1 549 c0 548 7 733 28 788 l12 29 247 -6 c136 -3 267 -11 292 -16z"
       id="path2"
       style="fill:#f80000;fill-opacity:1" />
  </g>
</svg>
